HIERARCHY
ROOT hip
{
	OFFSET 0.000000 0.000000 0.000000
	CHANNELS 6 Xposition Yposition Zposition Xrotation Zrotation Yrotation 
	JOINT abdomen
	{
		OFFSET 0.000000 3.422050 0.000000
		CHANNELS 3 Xrotation Zrotation Yrotation 
		JOINT chest
		{
			OFFSET 0.000000 8.486693 -0.684411
			CHANNELS 3 Xrotation Zrotation Yrotation 
			JOINT neck
			{
				OFFSET 0.000000 10.266162 -0.273764
				CHANNELS 3 Xrotation Zrotation Yrotation 
				JOINT head
				{
					OFFSET 0.000000 3.148285 0.000000
					CHANNELS 3 Xrotation Zrotation Yrotation 
					End Site
					{
						OFFSET 0.000000 3.148289 0.000000
					}
				}
			}
			JOINT lCollar
			{
				OFFSET 3.422053 6.707223 -0.821293
				CHANNELS 3 Yrotation Zrotation Xrotation 
				JOINT lShldr
				{
					OFFSET 3.285171 0.000000 0.000000
					CHANNELS 3 Zrotation Yrotation Xrotation 
					JOINT lForeArm
					{
						OFFSET 10.129278 0.000000 0.000000
						CHANNELS 3 Yrotation Zrotation Xrotation 
						JOINT lHand
						{
							OFFSET 8.486692 0.000000 0.000000
							CHANNELS 3 Zrotation Yrotation Xrotation 
							End Site
							{
								OFFSET 4.106464 0.000000 0.000000
							}
						}
					}
				}
			}
			JOINT rCollar
			{
				OFFSET -3.558935 6.707223 -0.821293
				CHANNELS 3 Yrotation Zrotation Xrotation 
				JOINT rShldr
				{
					OFFSET -3.148289 0.000000 0.000000
					CHANNELS 3 Zrotation Yrotation Xrotation 
					JOINT rForeArm
					{
						OFFSET -10.266159 0.000000 0.000000
						CHANNELS 3 Yrotation Zrotation Xrotation 
						JOINT rHand
						{
							OFFSET -8.349810 0.000000 0.000000
							CHANNELS 3 Zrotation Yrotation Xrotation 
							End Site
							{
								OFFSET -4.106464 0.000000 0.000000
							}
						}
					}
				}
			}
		}
	}
	JOINT lThigh
	{
		OFFSET 5.338403 -1.642589 1.368821
		CHANNELS 3 Xrotation Zrotation Yrotation 
		JOINT lShin
		{
			OFFSET -2.053232 -20.121670 0.000000
			CHANNELS 3 Xrotation Zrotation Yrotation 
			JOINT lFoot
			{
				OFFSET 0.000000 -19.300380 -1.231939
				CHANNELS 3 Xrotation Yrotation Zrotation 
				End Site
				{
					OFFSET 0.000000 -2.463878 4.653993
				}
			}
		}
	}
	JOINT rThigh
	{
		OFFSET -5.338403 -1.642589 1.368821
		CHANNELS 3 Xrotation Zrotation Yrotation 
		JOINT rShin
		{
			OFFSET 2.053232 -20.121670 0.000000
			CHANNELS 3 Xrotation Zrotation Yrotation 
			JOINT rFoot
			{
				OFFSET 0.000000 -19.300380 -1.231939
				CHANNELS 3 Xrotation Yrotation Zrotation 
				End Site
				{
					OFFSET 0.000000 -2.463878 4.653993
				}
			}
		}
	}
}
MOTION
Frames: 11
Frame Time: 0.076905
0.000000 43.528500 0.000000 0.000000 0.000000 0.000000 0.000000 0.000000 0.000000 0.000000 0.000000 0.000000 0.000000 0.000000 0.000000 0.000000 0.000000 0.000000 0.000000 0.000000 0.000000 0.000000 0.000000 0.000000 0.000000 0.000000 0.000000 0.000000 0.000000 0.000000 0.000000 0.000000 0.000000 0.000000 0.000000 0.000000 0.000000 0.000000 0.000000 0.000000 0.000000 0.000000 0.000000 0.000000 0.000000 0.000000 0.000000 0.000000 0.000000 0.000000 0.000000 0.000000 0.000000 0.000000 0.000000 0.000000 0.000000 0.000000 0.000000 0.000000 
-8.491570 5.402042 -4.622760 -90.001877 0.000000 0.000000 35.760818 -15.842561 -9.613132 31.867706 -3.018656 -18.328279 -0.786815 -27.171150 7.936824 -1.744937 -0.847306 29.281582 -7.414279 -28.814772 7.181056 -43.419899 5.126254 -75.720406 -10.237360 -13.710262 59.764080 70.478989 -29.199326 26.460573 -35.007618 37.167957 -15.943571 29.157238 -14.959152 53.913452 80.523445 -44.494125 76.073708 -1.749274 8.791638 8.641932 -78.759781 9.576427 23.065924 73.903870 9.197440 -1.568794 55.611153 -25.067310 9.488999 -61.483349 -61.703819 2.799148 103.187935 -7.166217 -3.044369 61.793118 35.313103 -56.911514 
-8.491570 5.402042 -4.622760 -90.001877 0.000000 0.000000 35.982933 -15.842550 -9.613186 31.368265 -3.018661 -18.328306 -0.786815 -27.171146 7.936823 -1.744937 -0.847306 29.281582 -7.099265 -29.073978 7.416068 -43.419899 5.126254 -75.720398 -10.237360 -13.710262 59.764080 70.478989 -29.199326 26.460573 -35.272400 37.111149 -15.743457 29.157238 -14.959152 53.913452 80.523445 -44.494125 76.073708 -1.749274 8.791638 8.641932 -78.759781 9.576427 23.065924 73.903870 9.197439 -1.568794 55.611149 -25.067310 9.488998 -61.516769 -61.951450 2.637821 103.187927 -7.166217 -3.044369 61.962563 35.189953 -57.263638 
-8.491570 5.402042 -4.622760 -90.001877 0.000000 0.000000 36.205059 -15.842539 -9.613237 30.868681 -3.018667 -18.328335 -0.786815 -27.171150 7.936824 -1.744937 -0.847306 29.281582 -6.782179 -29.332090 7.653347 -43.419899 5.126251 -75.720406 -10.237359 -13.710262 59.764080 70.478973 -29.199318 26.460571 -35.536751 37.053604 -15.543816 29.157234 -14.959151 53.913448 80.523445 -44.494125 76.073708 -1.749274 8.791636 8.641930 -78.759781 9.576427 23.065922 73.903854 9.197439 -1.568794 55.611153 -25.067310 9.488999 -61.548973 -62.199139 2.475471 103.187935 -7.166217 -3.044370 62.130825 35.065929 -57.614811 
-8.491570 5.402042 -4.622760 -90.001877 0.000000 0.000000 36.427200 -15.842525 -9.613291 30.368958 -3.018674 -18.328365 -0.786815 -27.171152 7.936824 -1.744937 -0.847306 29.281582 -6.463011 -29.589100 7.892910 -43.419899 5.126254 -75.720406 -10.237360 -13.710262 59.764080 70.478989 -29.199326 26.460573 -35.800652 36.995316 -15.344646 29.157238 -14.959154 53.913460 80.523445 -44.494125 76.073708 -1.749274 8.791639 8.641932 -78.759781 9.576428 23.065926 73.903877 9.197440 -1.568794 55.611153 -25.067312 9.489000 -61.579914 -62.446892 2.312066 103.187935 -7.166217 -3.044370 62.297916 34.941048 -57.965042 
-8.491570 5.402042 -4.622760 -90.001877 0.000000 0.000000 36.649345 -15.842513 -9.613343 29.869127 -3.018680 -18.328392 -0.786815 -27.171150 7.936824 -1.744937 -0.847306 29.281582 -6.141743 -29.844963 8.134762 -43.419899 5.126254 -75.720406 -10.237361 -13.710263 59.764080 70.478996 -29.199326 26.460571 -36.064114 36.936302 -15.145960 29.157238 -14.959152 53.913452 80.523445 -44.494125 76.073715 -1.749274 8.791638 8.641932 -78.759781 9.576427 23.065926 73.903870 9.197440 -1.568794 55.611153 -25.067312 9.489000 -61.609604 -62.694729 2.147557 103.187943 -7.166217 -3.044370 62.463837 34.815319 -58.314320 
-8.491570 5.402042 -4.622760 -90.001877 0.000000 0.000000 36.871502 -15.842500 -9.613395 29.369200 -3.018687 -18.328424 -0.786815 -27.171152 7.936824 -1.744937 -0.847306 29.281586 -5.818368 -30.099670 8.378921 -43.419899 5.126254 -75.720406 -10.237360 -13.710262 59.764080 70.478989 -29.199326 26.460573 -36.327129 36.876560 -14.947768 29.157238 -14.959152 53.913452 80.523445 -44.494125 76.073708 -1.749274 8.791638 8.641932 -78.759781 9.576427 23.065924 73.903870 9.197440 -1.568794 55.611153 -25.067310 9.488999 -61.637936 -62.942585 1.981923 103.187935 -7.166217 -3.044369 62.628593 34.688770 -58.662659 
-8.491570 5.402042 -4.622760 -90.001877 0.000000 0.000000 37.093670 -15.842489 -9.613449 28.869192 -3.018694 -18.328451 -0.786815 -27.171150 7.936824 -1.744937 -0.847306 29.281582 -5.492872 -30.353205 8.625398 -43.419899 5.126255 -75.720398 -10.237360 -13.710262 59.764080 70.478989 -29.199326 26.460573 -36.589680 36.816078 -14.750064 29.157238 -14.959152 53.913452 80.523445 -44.494125 76.073708 -1.749274 8.791638 8.641932 -78.759781 9.576427 23.065922 73.903870 9.197440 -1.568794 55.611153 -25.067308 9.488998 -61.664989 -63.190556 1.815145 103.187927 -7.166217 -3.044369 62.792149 34.561378 -59.010029 
-8.491570 5.402042 -4.622760 -90.001877 0.000000 0.000000 37.315826 -15.842474 -9.613499 28.369125 -3.018701 -18.328478 -0.786815 -27.171146 7.936824 -1.744937 -0.847306 29.281582 -5.165243 -30.605545 8.874201 -43.419899 5.126255 -75.720406 -10.237360 -13.710262 59.764080 70.478989 -29.199326 26.460573 -36.851768 36.754879 -14.552859 29.157234 -14.959152 53.913448 80.523445 -44.494122 76.073708 -1.749274 8.791637 8.641931 -78.759766 9.576426 23.065924 73.903870 9.197439 -1.568795 55.611153 -25.067308 9.488998 -61.690624 -63.438526 1.647177 103.187935 -7.166217 -3.044369 62.954536 34.433178 -59.356441 
-8.491570 5.402042 -4.622760 -90.001884 0.000000 0.000000 37.538006 -15.842465 -9.613554 27.869026 -3.018708 -18.328508 -0.786815 -27.171148 7.936823 -1.744937 -0.847306 29.281582 -4.835468 -30.856647 9.125340 -43.419899 5.126254 -75.720406 -10.237359 -13.710263 59.764080 70.478989 -29.199326 26.460573 -37.113384 36.692959 -14.356167 29.157238 -14.959154 53.913460 80.523445 -44.494125 76.073708 -1.749274 8.791638 8.641932 -78.759781 9.576427 23.065924 73.903870 9.197440 -1.568795 55.611153 -25.067310 9.488999 -61.714836 -63.686527 1.477990 103.187935 -7.166217 -3.044369 63.115742 34.304165 -59.701904 
-8.491570 5.402042 -4.622760 -90.001877 0.000000 0.000000 37.760170 -15.842448 -9.613604 27.368904 -3.018716 -18.328535 -0.786815 -27.171152 7.936824 -1.744937 -0.847306 29.281582 -4.503536 -31.106512 9.378833 -43.419899 5.126254 -75.720406 -10.237360 -13.710262 59.764080 70.478989 -29.199326 26.460573 -37.374535 36.630325 -14.159987 29.157242 -14.959154 53.913452 80.523445 -44.494125 76.073708 -1.749274 8.791638 8.641932 -78.759781 9.576427 23.065924 73.903870 9.197440 -1.568794 55.611153 -25.067310 9.488999 -61.737602 -63.934574 1.307537 103.187935 -7.166217 -3.044369 63.275761 34.174355 -60.046398 
